<?xml version="1.0" standalone="no"?>
<!DOCTYPE svg PUBLIC "-//W3C//DTD SVG 20010904//EN"
 "http://www.w3.org/TR/2001/REC-SVG-20010904/DTD/svg10.dtd">
<svg version="1.0" xmlns="http://www.w3.org/2000/svg"
 width="512.000000pt" height="512.000000pt" viewBox="0 0 512.000000 512.000000"
 preserveAspectRatio="xMidYMid meet">
<metadata>
Created by potrace 1.14, written by Peter Selinger 2001-2017
</metadata>
<g transform="translate(0.000000,512.000000) scale(0.100000,-0.100000)"
fill="#000000" stroke="none">
<path d="M0 2560 l0 -2560 2560 0 2560 0 0 2560 0 2560 -2560 0 -2560 0 0
-2560z m1130 575 l0 -385 33 0 c28 1 79 45 442 385 l410 384 298 1 c163 0 297
-2 297 -4 0 -2 -236 -217 -525 -476 -289 -260 -525 -476 -525 -480 0 -4 236
-220 525 -479 289 -260 525 -474 525 -477 0 -2 -134 -4 -297 -4 l-298 1 -410
384 c-363 340 -414 384 -442 385 l-33 0 0 -385 0 -385 -200 0 -200 0 0 960 0
960 200 0 200 0 0 -385z m2825 357 c220 -61 333 -166 386 -354 30 -110 33
-321 5 -413 -38 -125 -101 -220 -188 -282 l-48 -35 57 -35 c70 -42 96 -65 134
-120 57 -82 62 -108 69 -373 4 -135 10 -253 14 -262 8 -17 -5 -18 -192 -18
l-201 0 -10 38 c-6 20 -11 127 -11 237 0 110 -5 216 -10 236 -16 56 -51 101
-100 128 -85 47 -133 53 -492 58 l-338 5 0 -351 0 -351 -200 0 -200 0 0 961 0
960 623 -3 c608 -4 624 -4 702 -26z"/>
<path d="M3030 2910 l0 -241 388 3 387 3 56 26 c78 37 104 89 104 209 0 119
-25 169 -103 207 l-57 28 -387 3 -388 3 0 -241z"/>
</g>
</svg>
