<svg width="21" height="21" viewBox="0 0 21 21" fill="none" xmlns="http://www.w3.org/2000/svg">
<path d="M11.8445 9.25532V1.40426C11.8445 0.70213 11.2683 0 10.5 0C9.73171 0 9.15549 0.70213 9.15549 1.40426V9.25532H1.28049C0.576219 9.25532 0 9.82979 0 10.5319C0 11.1702 0.576219 11.7447 1.28049 11.7447H9.15549V19.6596C9.15549 20.2979 9.73171 21 10.5 21C11.2683 21 11.8445 20.3617 11.8445 19.6596V11.7447H19.7835C20.4238 11.7447 21 11.1702 21 10.5319C21 9.82979 20.4238 9.25532 19.7835 9.25532H11.8445Z" fill="black"/>
</svg>
