<svg width="21" height="21" viewBox="0 0 21 21" fill="none" xmlns="http://www.w3.org/2000/svg">
<path d="M10.8846 20.9497C11.3654 20.9497 11.75 20.6516 11.75 20.3265V0.623226C11.75 0.298065 11.3654 0 10.8846 0C10.3846 0 10 0.298065 10 0.623226V20.3265C10 20.6516 10.3846 20.9497 10.8846 20.9497Z" fill="black"/>
<path d="M20.9497 11.1154C20.9497 10.6346 20.6516 10.25 20.3265 10.25L0.623226 10.25C0.298065 10.25 0 10.6346 0 11.1154C0 11.6154 0.298065 12 0.623226 12L20.3265 12C20.6516 12 20.9497 11.6154 20.9497 11.1154Z" fill="black"/>
</svg>
