<svg width="21" height="21" viewBox="0 0 21 21" fill="none" xmlns="http://www.w3.org/2000/svg">
<path d="M9.50215 6.3019C9.67729 6.13117 9.74297 5.9391 9.74297 5.76837C9.74297 5.36288 9.3489 5.00007 8.93294 5.00007C8.73591 5.00007 8.53888 5.08544 8.38563 5.23483L3.43789 10.0367C3.15329 10.3141 3.00004 10.6129 3.00004 10.9117C3.00004 11.1891 3.15329 11.4879 3.43789 11.7653L8.40752 16.5885C8.58266 16.7592 8.7578 16.8232 8.95483 16.8232C9.37079 16.8232 9.76486 16.4604 9.76486 16.0549C9.76486 15.8629 9.67729 15.6708 9.50215 15.5001L5.4958 11.6373C6.83125 11.7226 9.15187 11.7226 17.3835 11.7226C17.8651 11.7226 18.2373 11.3385 18.2373 10.8903C18.2373 10.4421 17.8432 10.058 17.3835 10.058C8.36373 10.058 6.72179 10.0793 5.51769 10.1647L9.50215 6.3019Z" fill="black"/>
</svg>
