<svg width="21" height="21" viewBox="0 0 21 21" fill="none" xmlns="http://www.w3.org/2000/svg">
<path d="M17.0496 4.66614C16.6961 4.31258 16.1021 4.34087 15.7627 4.68028L4.59041 15.8526C4.251 16.192 4.22272 16.7859 4.57627 17.1395C4.94396 17.5072 5.53793 17.4789 5.87735 17.1395L17.0496 5.96721C17.389 5.6278 17.4173 5.03383 17.0496 4.66614Z" fill="black"/>
<path d="M17.0638 17.1392C17.4174 16.7857 17.3891 16.1917 17.0497 15.8523L5.87741 4.68001C5.538 4.3406 4.94403 4.31231 4.59048 4.66587C4.22278 5.03356 4.25107 5.62753 4.59048 5.96694L15.7628 17.1392C16.1022 17.4786 16.6961 17.5069 17.0638 17.1392Z" fill="black"/>
</svg>
