<svg width="21" height="21" viewBox="0 0 21 21" fill="none" xmlns="http://www.w3.org/2000/svg">
<path d="M19.64 5.90031C19.64 5.40031 19.2 5.00031 18.72 5.00031L2.92 5.00031C2.44 5.00031 2 5.40031 2 5.90031C2 6.42031 2.44 6.82031 2.92 6.82031L18.72 6.82031C19.2 6.82031 19.64 6.42031 19.64 5.90031Z" fill="#0D0D0D"/>
<path d="M19.64 10.7206C19.64 10.2206 19.2 9.82062 18.72 9.82062L2.92 9.82063C2.44 9.82063 2 10.2206 2 10.7206C2 11.2406 2.44 11.6406 2.92 11.6406L18.72 11.6406C19.2 11.6406 19.64 11.2406 19.64 10.7206Z" fill="#0D0D0D"/>
<path d="M19.64 15.5409C19.64 15.0409 19.2 14.6409 18.72 14.6409L2.92 14.6409C2.44 14.6409 2 15.0409 2 15.5409C2 16.0609 2.44 16.4609 2.92 16.4609L18.72 16.4609C19.2 16.4609 19.64 16.0609 19.64 15.5409Z" fill="#0D0D0D"/>
</svg>
