<svg width="21" height="21" viewBox="0 0 21 21" fill="none" xmlns="http://www.w3.org/2000/svg">
<path d="M10.5 13.1201C9.05026 13.1201 7.875 14.2961 7.875 15.7468V21H13.125V15.7468C13.125 14.2961 11.9497 13.1201 10.5 13.1201Z" fill="black"/>
<path d="M14.875 15.7467V21H18.375C19.8247 21 21 19.824 21 18.3734V10.3875C21.0002 9.93267 20.8236 9.49558 20.5074 9.16877L13.0716 1.12511C11.7596 -0.295324 9.54528 -0.382537 8.12573 0.930289C8.0583 0.992671 7.99333 1.05764 7.93103 1.12511L0.508389 9.16614C0.182643 9.49431 -0.000122985 9.93813 6.20907e-08 10.4007V18.3734C6.20907e-08 19.824 1.17526 21 2.625 21H6.12499V15.7467C6.14135 13.3593 8.06773 11.4097 10.3936 11.3535C12.7973 11.2955 14.8567 13.2783 14.875 15.7467Z" fill="black"/>
<path d="M10.5 13.1201C9.05026 13.1201 7.875 14.2961 7.875 15.7468V21H13.125V15.7468C13.125 14.2961 11.9497 13.1201 10.5 13.1201Z" fill="black"/>
</svg>
