<svg width="21" height="21" viewBox="0 0 21 21" fill="none" xmlns="http://www.w3.org/2000/svg">
<path d="M8.73516 15.9756C8.56001 16.1707 8.49434 16.3902 8.49434 16.5854C8.49434 17.0488 8.8884 17.4634 9.30436 17.4634C9.5014 17.4634 9.69843 17.3659 9.85168 17.1951L14.7994 11.7073C15.084 11.3902 15.2373 11.0488 15.2373 10.7073C15.2373 10.3902 15.084 10.0488 14.7994 9.73171L9.82979 4.21951C9.65465 4.02439 9.47951 3.95122 9.28247 3.95122C8.86651 3.95122 8.47244 4.36585 8.47244 4.82927C8.47244 5.04878 8.56001 5.26829 8.73516 5.46342L12.7415 9.87805C11.4061 9.78049 9.08544 9.78049 0.853812 9.78049C0.372175 9.78049 0 10.2195 0 10.7317C0 11.2439 0.394067 11.6829 0.853812 11.6829C9.87357 11.6829 11.5155 11.6585 12.7196 11.561L8.73516 15.9756ZM17.3001 0C16.8623 0 16.4901 0.414635 16.4901 0.90244C16.4901 1.39024 16.8623 1.80488 17.3001 1.80488H19.2048V19.1951H17.3001C16.8623 19.1951 16.4901 19.6098 16.4901 20.0976C16.4901 20.6098 16.8623 21 17.3001 21H20.0148C20.6497 21 21 20.5854 21 19.9024V1.12195C21 0.414635 20.6497 0 20.0148 0H17.3001Z" fill="black"/>
</svg>
